<svg width="47" height="33" viewBox="0 0 47 33" fill="none" xmlns="http://www.w3.org/2000/svg">
<rect y="0.5" width="47" height="32" rx="3" fill="#9AA2A8"/>
<path d="M14.7051 20.5L12.6426 13.7793H12.5898C12.6641 15.1465 12.7012 16.0586 12.7012 16.5156V20.5H11.0781V11.9336H13.5508L15.5781 18.4844H15.6133L17.7637 11.9336H20.2363V20.5H18.543V16.4453C18.543 16.2539 18.5449 16.0332 18.5488 15.7832C18.5566 15.5332 18.584 14.8691 18.6309 13.791H18.5781L16.3691 20.5H14.7051ZM26.418 20.5L26.0723 19.6094H26.0254C25.7246 19.9883 25.4141 20.252 25.0938 20.4004C24.7773 20.5449 24.3633 20.6172 23.8516 20.6172C23.2227 20.6172 22.7266 20.4375 22.3633 20.0781C22.0039 19.7188 21.8242 19.207 21.8242 18.543C21.8242 17.8477 22.0664 17.3359 22.5508 17.0078C23.0391 16.6758 23.7734 16.4922 24.7539 16.457L25.8906 16.4219V16.1348C25.8906 15.4707 25.5508 15.1387 24.8711 15.1387C24.3477 15.1387 23.7324 15.2969 23.0254 15.6133L22.4336 14.4062C23.1875 14.0117 24.0234 13.8145 24.9414 13.8145C25.8203 13.8145 26.4941 14.0059 26.9629 14.3887C27.4316 14.7715 27.666 15.3535 27.666 16.1348V20.5H26.418ZM25.8906 17.4648L25.1992 17.4883C24.6797 17.5039 24.293 17.5977 24.0391 17.7695C23.7852 17.9414 23.6582 18.2031 23.6582 18.5547C23.6582 19.0586 23.9473 19.3105 24.5254 19.3105C24.9395 19.3105 25.2695 19.1914 25.5156 18.9531C25.7656 18.7148 25.8906 18.3984 25.8906 18.0039V17.4648ZM30.8535 17.1543L28.7441 13.9492H30.7715L32.043 16.0352L33.3262 13.9492H35.3535L33.2207 17.1543L35.4531 20.5H33.4199L32.043 18.2559L30.6602 20.5H28.6328L30.8535 17.1543Z" fill="white"/>
</svg>
